#WaveFront *.obj file
#generated by Maxwell Studio.
g Backdrop

#Vertices
v 1.750000 0.000000 -1.000000
v 1.750000 0.000000 0.500000
v 1.750000 0.000651 0.525708
v 1.750000 0.002584 0.551081
v 1.750000 0.005767 0.576088
v 1.750000 0.010169 0.600696
v 1.750000 0.015757 0.624875
v 1.750000 0.022501 0.648592
v 1.750000 0.030368 0.671817
v 1.750000 0.039328 0.694517
v 1.750000 0.049348 0.716662
v 1.750000 0.060398 0.738219
v 1.750000 0.072445 0.759158
v 1.750000 0.085458 0.779445
v 1.750000 0.099406 0.799051
v 1.750000 0.114256 0.817943
v 1.750000 0.129978 0.836090
v 1.750000 0.146540 0.853460
v 1.750000 0.163910 0.870022
v 1.750000 0.182057 0.885744
v 1.750000 0.200949 0.900594
v 1.750000 0.220555 0.914542
v 1.750000 0.240843 0.927555
v 1.750000 0.261781 0.939603
v 1.750000 0.283338 0.950652
v 1.750000 0.305483 0.960672
v 1.750000 0.328183 0.969632
v 1.750000 0.351408 0.977500
v 1.750000 0.375125 0.984243
v 1.750000 0.399304 0.989832
v 1.750000 0.423913 0.994233
v 1.750000 0.448919 0.997416
v 1.750000 0.474292 0.999349
v 1.750000 0.500000 1.000000
v 1.750000 1.500000 1.000000
v -1.749999 -0.000000 -1.000000
v -1.750000 -0.000000 0.500000
v -1.750000 0.000651 0.525708
v -1.750000 0.002584 0.551081
v -1.750000 0.005767 0.576087
v -1.750000 0.010169 0.600695
v -1.750000 0.015757 0.624874
v -1.750000 0.022500 0.648592
v -1.750000 0.030368 0.671816
v -1.750000 0.039328 0.694517
v -1.750000 0.049348 0.716662
v -1.750000 0.060397 0.738219
v -1.750000 0.072445 0.759157
v -1.750000 0.085458 0.779445
v -1.750000 0.099406 0.799050
v -1.750000 0.114256 0.817942
v -1.750000 0.129978 0.836089
v -1.750000 0.146540 0.853459
v -1.750000 0.163910 0.870021
v -1.750000 0.182057 0.885743
v -1.750000 0.200949 0.900594
v -1.750000 0.220555 0.914542
v -1.750000 0.240843 0.927555
v -1.750000 0.261781 0.939602
v -1.750000 0.283338 0.950652
v -1.750000 0.305483 0.960672
v -1.750000 0.328183 0.969632
v -1.750000 0.351408 0.977499
v -1.750000 0.375125 0.984243
v -1.750000 0.399304 0.989831
v -1.750000 0.423912 0.994232
v -1.750000 0.448919 0.997415
v -1.750000 0.474292 0.999348
v -1.750000 0.500000 0.999999
v -1.750000 1.500000 0.999999

#Vertex Normals
vn -0.000000 0.977943 -0.208870
vn -0.000000 0.981298 -0.192493
vn -0.000000 0.981298 -0.192493
vn -0.000000 0.987196 -0.159510
vn -0.000000 0.989736 -0.142905
vn -0.000000 0.993984 -0.109527
vn -0.000000 0.995689 -0.092754
vn -0.000000 0.995689 -0.092754
vn -0.000000 0.998252 -0.059098
vn -0.000000 0.999108 -0.042216
vn -0.000000 0.999108 -0.042216
vn -0.000000 0.999857 -0.016885
vn -0.000000 0.999964 -0.008443
vn -0.000000 1.000000 -0.000000
vn -0.000000 1.000000 -0.000000
vn 0.000000 -0.000000 -1.000000
vn 0.000000 0.008443 -0.999964
vn 0.000000 0.016885 -0.999857
vn 0.000000 0.042216 -0.999109
vn 0.000000 0.059097 -0.998252
vn 0.000000 0.059097 -0.998252
vn 0.000000 0.092753 -0.995689
vn 0.000000 0.109526 -0.993984
vn 0.000000 0.142904 -0.989737
vn 0.000000 0.159509 -0.987197
vn 0.000000 0.159509 -0.987197
vn 0.000000 0.192491 -0.981299
vn 0.000000 0.208870 -0.977943
vn 0.000000 0.241355 -0.970437
vn 0.000000 0.257461 -0.966289
vn 0.000000 0.289355 -0.957222
vn 0.000000 0.305143 -0.952306
vn 0.000000 0.305143 -0.952306
vn 0.000000 0.336364 -0.941732
vn 0.000000 0.351797 -0.936076
vn 0.000000 0.351797 -0.936076
vn 0.000000 0.382275 -0.924048
vn 0.000000 0.397322 -0.917679
vn 0.000000 0.426997 -0.904253
vn 0.000000 0.441628 -0.897198
vn 0.000000 0.470452 -0.882426
vn 0.000000 0.484647 -0.874710
vn 0.000000 0.512576 -0.858642
vn 0.000000 0.526312 -0.850291
vn 0.000000 0.553310 -0.832975
vn 0.000000 0.566573 -0.824012
vn 0.000000 0.592609 -0.805491
vn 0.000000 0.605382 -0.795935
vn 0.000000 0.605382 -0.795935
vn 0.000000 0.630426 -0.776249
vn 0.000000 0.642698 -0.766119
vn 0.000000 0.666727 -0.745302
vn 0.000000 0.678484 -0.734615
vn 0.000000 0.678484 -0.734615
vn 0.000000 0.701470 -0.712699
vn 0.000000 0.712699 -0.701470
vn 0.000000 0.734615 -0.678484
vn 0.000000 0.745301 -0.666728
vn 0.000000 0.766118 -0.642700
vn 0.000000 0.776248 -0.630428
vn 0.000000 0.795935 -0.605382
vn 0.000000 0.805491 -0.592608
vn 0.000000 0.824012 -0.566572
vn 0.000000 0.832976 -0.553309
vn 0.000000 0.850292 -0.526312
vn 0.000000 0.858642 -0.512576
vn 0.000000 0.858642 -0.512576
vn 0.000000 0.874710 -0.484647
vn 0.000000 0.882425 -0.470452
vn 0.000000 0.897198 -0.441628
vn 0.000000 0.904253 -0.426998
vn 0.000000 0.917679 -0.397322
vn 0.000000 0.917679 -0.397322
vn 0.000000 0.924049 -0.382275
vn 0.000000 0.936076 -0.351797
vn 0.000000 0.941732 -0.336364
vn 0.000000 0.952306 -0.305144
vn 0.000000 0.957222 -0.289355
vn -0.000000 0.966289 -0.257460
vn -0.000000 0.970437 -0.241354
#Texture coordinates
vt 0.456576 0.000000
vt 0.000000 0.000000
vt 0.456576 1.000000
vt 0.456576 1.000000
vt 0.000000 0.000000
vt 0.000000 1.000000
vt 0.464404 0.000000
vt 0.456576 0.000000
vt 0.464404 1.000000
vt 0.464404 1.000000
vt 0.456576 0.000000
vt 0.456576 1.000000
vt 0.472150 0.000000
vt 0.464404 0.000000
vt 0.472150 1.000000
vt 0.472150 1.000000
vt 0.464404 0.000000
vt 0.464404 1.000000
vt 0.479823 0.000000
vt 0.472150 0.000000
vt 0.479823 1.000000
vt 0.479823 1.000000
vt 0.472150 0.000000
vt 0.472150 1.000000
vt 0.487432 0.000000
vt 0.479823 0.000000
vt 0.487432 1.000000
vt 0.487432 1.000000
vt 0.479823 0.000000
vt 0.479823 1.000000
vt 0.494986 0.000000
vt 0.487432 0.000000
vt 0.494986 1.000000
vt 0.494986 1.000000
vt 0.487432 0.000000
vt 0.487432 1.000000
vt 0.502491 0.000000
vt 0.494986 0.000000
vt 0.502491 1.000000
vt 0.502491 1.000000
vt 0.494986 0.000000
vt 0.494986 1.000000
vt 0.509955 0.000000
vt 0.502491 0.000000
vt 0.509955 1.000000
vt 0.509955 1.000000
vt 0.502491 0.000000
vt 0.502491 1.000000
vt 0.517383 0.000000
vt 0.509955 0.000000
vt 0.517383 1.000000
vt 0.517383 1.000000
vt 0.509955 0.000000
vt 0.509955 1.000000
vt 0.524782 0.000000
vt 0.517383 0.000000
vt 0.524782 1.000000
vt 0.524782 1.000000
vt 0.517383 0.000000
vt 0.517383 1.000000
vt 0.532155 0.000000
vt 0.524782 0.000000
vt 0.532155 1.000000
vt 0.532155 1.000000
vt 0.524782 0.000000
vt 0.524782 1.000000
vt 0.539508 0.000000
vt 0.532155 0.000000
vt 0.539508 1.000000
vt 0.539508 1.000000
vt 0.532155 0.000000
vt 0.532155 1.000000
vt 0.546844 0.000000
vt 0.539508 0.000000
vt 0.546844 1.000000
vt 0.546844 1.000000
vt 0.539508 0.000000
vt 0.539508 1.000000
vt 0.554168 0.000000
vt 0.546844 0.000000
vt 0.554168 1.000000
vt 0.554168 1.000000
vt 0.546844 0.000000
vt 0.546844 1.000000
vt 0.561482 0.000000
vt 0.554168 0.000000
vt 0.561482 1.000000
vt 0.561482 1.000000
vt 0.554168 0.000000
vt 0.554168 1.000000
vt 0.568791 0.000000
vt 0.561482 0.000000
vt 0.568791 1.000000
vt 0.568791 1.000000
vt 0.561482 0.000000
vt 0.561482 1.000000
vt 0.576096 0.000000
vt 0.568791 0.000000
vt 0.576096 1.000000
vt 0.576096 1.000000
vt 0.568791 0.000000
vt 0.568791 1.000000
vt 0.583401 0.000000
vt 0.576096 0.000000
vt 0.583401 1.000000
vt 0.583401 1.000000
vt 0.576096 0.000000
vt 0.576096 1.000000
vt 0.590710 0.000000
vt 0.583401 0.000000
vt 0.590710 1.000000
vt 0.590710 1.000000
vt 0.583401 0.000000
vt 0.583401 1.000000
vt 0.598024 0.000000
vt 0.590710 0.000000
vt 0.598024 1.000000
vt 0.598024 1.000000
vt 0.590710 0.000000
vt 0.590710 1.000000
vt 0.605348 0.000000
vt 0.598024 0.000000
vt 0.605348 1.000000
vt 0.605348 1.000000
vt 0.598024 0.000000
vt 0.598024 1.000000
vt 0.612684 0.000000
vt 0.605348 0.000000
vt 0.612684 1.000000
vt 0.612684 1.000000
vt 0.605348 0.000000
vt 0.605348 1.000000
vt 0.620037 0.000000
vt 0.612684 0.000000
vt 0.620037 1.000000
vt 0.620037 1.000000
vt 0.612684 0.000000
vt 0.612684 1.000000
vt 0.627411 0.000000
vt 0.620037 0.000000
vt 0.627411 1.000000
vt 0.627411 1.000000
vt 0.620037 0.000000
vt 0.620037 1.000000
vt 0.634809 0.000000
vt 0.627411 0.000000
vt 0.634809 1.000000
vt 0.634809 1.000000
vt 0.627411 0.000000
vt 0.627411 1.000000
vt 0.642237 0.000000
vt 0.634809 0.000000
vt 0.642237 1.000000
vt 0.642237 1.000000
vt 0.634809 0.000000
vt 0.634809 1.000000
vt 0.649701 0.000000
vt 0.642237 0.000000
vt 0.649701 1.000000
vt 0.649701 1.000000
vt 0.642237 0.000000
vt 0.642237 1.000000
vt 0.657207 0.000000
vt 0.649701 0.000000
vt 0.657207 1.000000
vt 0.657207 1.000000
vt 0.649701 0.000000
vt 0.649701 1.000000
vt 0.664760 0.000000
vt 0.657207 0.000000
vt 0.664760 1.000000
vt 0.664760 1.000000
vt 0.657207 0.000000
vt 0.657207 1.000000
vt 0.672370 0.000000
vt 0.664760 0.000000
vt 0.672370 1.000000
vt 0.672370 1.000000
vt 0.664760 0.000000
vt 0.664760 1.000000
vt 0.680043 0.000000
vt 0.672370 0.000000
vt 0.680043 1.000000
vt 0.680043 1.000000
vt 0.672370 0.000000
vt 0.672370 1.000000
vt 0.687788 0.000000
vt 0.680043 0.000000
vt 0.687788 1.000000
vt 0.687788 1.000000
vt 0.680043 0.000000
vt 0.680043 1.000000
vt 0.695616 0.000000
vt 0.687788 0.000000
vt 0.695616 1.000000
vt 0.695616 1.000000
vt 0.687788 0.000000
vt 0.687788 1.000000
vt 1.000000 0.000000
vt 0.695616 0.000000
vt 1.000000 1.000000
vt 1.000000 1.000000
vt 0.695616 0.000000
vt 0.695616 1.000000

#Faces
f 2/1/12 1/2/15 37/3/13
f 37/4/13 1/5/15 36/6/14
f 3/7/9 2/8/12 38/9/10
f 38/10/10 2/11/12 37/12/13
f 4/13/6 3/14/9 39/15/8
f 39/16/8 3/17/9 38/18/11
f 5/19/4 4/20/6 40/21/5
f 40/22/5 4/23/6 39/24/7
f 6/25/1 5/26/4 41/27/2
f 41/28/2 5/29/4 40/30/5
f 7/31/79 6/32/1 42/33/80
f 42/34/80 6/35/1 41/36/3
f 8/37/77 7/38/79 43/39/78
f 43/40/78 7/41/79 42/42/80
f 9/43/75 8/44/77 44/45/76
f 44/46/76 8/47/77 43/48/78
f 10/49/73 9/50/75 45/51/74
f 45/52/74 9/53/75 44/54/76
f 11/55/70 10/56/72 46/57/71
f 46/58/71 10/59/72 45/60/74
f 12/61/68 11/62/70 47/63/69
f 47/64/69 11/65/70 46/66/71
f 13/67/65 12/68/68 48/69/67
f 48/70/67 12/71/68 47/72/69
f 14/73/63 13/74/65 49/75/64
f 49/76/64 13/77/65 48/78/66
f 15/79/61 14/80/63 50/81/62
f 50/82/62 14/83/63 49/84/64
f 16/85/59 15/86/61 51/87/60
f 51/88/60 15/89/61 50/90/62
f 17/91/57 16/92/59 52/93/58
f 52/94/58 16/95/59 51/96/60
f 18/97/55 17/98/57 53/99/56
f 53/100/56 17/101/57 52/102/58
f 19/103/52 18/104/55 54/105/53
f 54/106/53 18/107/55 53/108/56
f 20/109/50 19/110/52 55/111/51
f 55/112/51 19/113/52 54/114/54
f 21/115/47 20/116/50 56/117/49
f 56/118/49 20/119/50 55/120/51
f 22/121/45 21/122/47 57/123/46
f 57/124/46 21/125/47 56/126/48
f 23/127/43 22/128/45 58/129/44
f 58/130/44 22/131/45 57/132/46
f 24/133/41 23/134/43 59/135/42
f 59/136/42 23/137/43 58/138/44
f 25/139/39 24/140/41 60/141/40
f 60/142/40 24/143/41 59/144/42
f 26/145/37 25/146/39 61/147/38
f 61/148/38 25/149/39 60/150/40
f 27/151/34 26/152/37 62/153/36
f 62/154/35 26/155/37 61/156/38
f 28/157/31 27/158/34 63/159/32
f 63/160/32 27/161/34 62/162/35
f 29/163/29 28/164/31 64/165/30
f 64/166/30 28/167/31 63/168/33
f 30/169/27 29/170/29 65/171/28
f 65/172/28 29/173/29 64/174/30
f 31/175/24 30/176/27 66/177/25
f 66/178/25 30/179/27 65/180/28
f 32/181/22 31/182/24 67/183/23
f 67/184/23 31/185/24 66/186/26
f 33/187/19 32/188/22 68/189/20
f 68/190/20 32/191/22 67/192/23
f 34/193/17 33/194/19 69/195/18
f 69/196/18 33/197/19 68/198/21
f 35/199/16 34/200/17 70/201/16
f 70/202/16 34/203/17 69/204/18

#End object.
