#WaveFront OBJ File
#Generated by Maxwell Studio.
g Backdrop

#Vertices
v 0.363202 0.000000 0.525000
v -0.086798 0.000000 0.525000
v -0.094510 0.000195 0.525000
v -0.102122 0.000775 0.525000
v -0.109624 0.001730 0.525000
v -0.117007 0.003051 0.525000
v -0.124260 0.004727 0.525000
v -0.131375 0.006750 0.525000
v -0.138343 0.009110 0.525000
v -0.145153 0.011798 0.525000
v -0.151796 0.014804 0.525000
v -0.158264 0.018119 0.525000
v -0.164545 0.021733 0.525000
v -0.170631 0.025637 0.525000
v -0.176513 0.029822 0.525000
v -0.182181 0.034277 0.525000
v -0.187625 0.038994 0.525000
v -0.192836 0.043962 0.525000
v -0.197804 0.049173 0.525000
v -0.202521 0.054617 0.525000
v -0.206976 0.060285 0.525000
v -0.211160 0.066166 0.525000
v -0.215064 0.072253 0.525000
v -0.218679 0.078534 0.525000
v -0.221993 0.085001 0.525000
v -0.224999 0.091645 0.525000
v -0.227687 0.098455 0.525000
v -0.230048 0.105422 0.525000
v -0.232071 0.112538 0.525000
v -0.233747 0.119791 0.525000
v -0.235068 0.127174 0.525000
v -0.236022 0.134676 0.525000
v -0.236602 0.142288 0.525000
v -0.236798 0.150000 0.525000
v -0.236798 0.450000 0.525000
v 0.363202 -0.000000 -0.525000
v -0.086798 -0.000000 -0.525000
v -0.094510 0.000195 -0.525000
v -0.102122 0.000775 -0.525000
v -0.109624 0.001730 -0.525000
v -0.117006 0.003051 -0.525000
v -0.124260 0.004727 -0.525000
v -0.131375 0.006750 -0.525000
v -0.138343 0.009110 -0.525000
v -0.145153 0.011798 -0.525000
v -0.151796 0.014804 -0.525000
v -0.158263 0.018119 -0.525000
v -0.164545 0.021733 -0.525000
v -0.170631 0.025637 -0.525000
v -0.176513 0.029822 -0.525000
v -0.182180 0.034277 -0.525000
v -0.187625 0.038993 -0.525000
v -0.192836 0.043962 -0.525000
v -0.197804 0.049173 -0.525000
v -0.202521 0.054617 -0.525000
v -0.206976 0.060285 -0.525000
v -0.211160 0.066166 -0.525000
v -0.215064 0.072253 -0.525000
v -0.218678 0.078534 -0.525000
v -0.221993 0.085001 -0.525000
v -0.224999 0.091645 -0.525000
v -0.227687 0.098455 -0.525000
v -0.230047 0.105422 -0.525000
v -0.232071 0.112538 -0.525000
v -0.233747 0.119791 -0.525000
v -0.235067 0.127174 -0.525000
v -0.236022 0.134676 -0.525000
v -0.236602 0.142288 -0.525000
v -0.236798 0.150000 -0.525000
v -0.236798 0.450000 -0.525000

#Vertex Normals
vn 0.000000 1.000000 -0.000000
vn 0.000000 1.000000 -0.000000
vn 0.008443 0.999964 -0.000000
vn 0.016885 0.999857 -0.000000
vn 0.016885 0.999857 -0.000000
vn 0.016885 0.999857 -0.000000
vn 0.042216 0.999108 -0.000000
vn 0.059098 0.998252 -0.000000
vn 0.059098 0.998252 -0.000000
vn 0.059098 0.998252 -0.000000
vn 0.092754 0.995689 -0.000000
vn 0.092754 0.995689 -0.000000
vn 0.109527 0.993984 -0.000000
vn 0.142905 0.989736 -0.000000
vn 0.159510 0.987196 -0.000000
vn 0.192492 0.981298 -0.000000
vn 0.208870 0.977943 -0.000000
vn 0.241354 0.970437 -0.000000
vn 0.257460 0.966289 -0.000000
vn 0.289355 0.957222 0.000000
vn 0.305144 0.952306 0.000000
vn 0.305144 0.952306 0.000000
vn 0.336364 0.941732 0.000000
vn 0.351797 0.936076 0.000000
vn 0.351797 0.936076 0.000000
vn 0.382275 0.924049 0.000000
vn 0.397321 0.917679 0.000000
vn 0.426997 0.904253 0.000000
vn 0.426997 0.904253 0.000000
vn 0.441628 0.897198 0.000000
vn 0.470452 0.882426 0.000000
vn 0.484647 0.874710 0.000000
vn 0.512576 0.858642 0.000000
vn 0.526312 0.850292 0.000000
vn 0.553309 0.832976 0.000000
vn 0.566572 0.824012 0.000000
vn 0.592608 0.805491 0.000000
vn 0.605382 0.795935 0.000000
vn 0.630427 0.776248 0.000000
vn 0.630427 0.776248 0.000000
vn 0.630427 0.776248 0.000000
vn 0.642700 0.766118 0.000000
vn 0.666728 0.745301 0.000000
vn 0.666728 0.745301 0.000000
vn 0.678485 0.734615 0.000000
vn 0.701470 0.712699 0.000000
vn 0.712699 0.701470 0.000000
vn 0.734615 0.678484 0.000000
vn 0.734615 0.678484 0.000000
vn 0.745302 0.666727 0.000000
vn 0.766119 0.642698 0.000000
vn 0.776249 0.630426 0.000000
vn 0.776249 0.630426 0.000000
vn 0.795935 0.605382 0.000000
vn 0.805491 0.592609 0.000000
vn 0.824012 0.566573 0.000000
vn 0.824012 0.566573 0.000000
vn 0.832976 0.553310 0.000000
vn 0.832976 0.553310 0.000000
vn 0.850291 0.526312 0.000000
vn 0.858642 0.512576 0.000000
vn 0.874710 0.484647 0.000000
vn 0.882426 0.470452 0.000000
vn 0.897198 0.441628 0.000000
vn 0.897198 0.441628 0.000000
vn 0.904253 0.426997 0.000000
vn 0.917679 0.397322 0.000000
vn 0.924048 0.382275 0.000000
vn 0.936076 0.351797 0.000000
vn 0.941732 0.336364 0.000000
vn 0.952306 0.305143 0.000000
vn 0.957222 0.289355 0.000000
vn 0.966289 0.257461 0.000000
vn 0.970437 0.241355 0.000000
vn 0.970437 0.241355 0.000000
vn 0.977943 0.208870 0.000000
vn 0.981299 0.192491 0.000000
vn 0.987197 0.159509 0.000000
vn 0.989737 0.142904 0.000000
vn 0.993984 0.109526 0.000000
vn 0.995689 0.092753 0.000000
vn 0.995689 0.092753 0.000000
vn 0.998252 0.059097 0.000000
vn 0.998252 0.059097 0.000000
vn 0.999109 0.042216 0.000000
vn 0.999857 0.016885 0.000000
vn 0.999964 0.008443 0.000000
vn 1.000000 -0.000000 0.000000
vn 1.000000 -0.000000 0.000000
#Texture coordinates
vt 0.456576 0.000000
vt 0.000000 0.000000
vt 0.456576 1.000000
vt 0.456576 1.000000
vt 0.000000 0.000000
vt 0.000000 1.000000
vt 0.464404 0.000000
vt 0.456576 0.000000
vt 0.464404 1.000000
vt 0.464404 1.000000
vt 0.456576 0.000000
vt 0.456576 1.000000
vt 0.472150 0.000000
vt 0.464404 0.000000
vt 0.472150 1.000000
vt 0.472150 1.000000
vt 0.464404 0.000000
vt 0.464404 1.000000
vt 0.479823 0.000000
vt 0.472150 0.000000
vt 0.479823 1.000000
vt 0.479823 1.000000
vt 0.472150 0.000000
vt 0.472150 1.000000
vt 0.487432 0.000000
vt 0.479823 0.000000
vt 0.487432 1.000000
vt 0.487432 1.000000
vt 0.479823 0.000000
vt 0.479823 1.000000
vt 0.494986 0.000000
vt 0.487432 0.000000
vt 0.494986 1.000000
vt 0.494986 1.000000
vt 0.487432 0.000000
vt 0.487432 1.000000
vt 0.502491 0.000000
vt 0.494986 0.000000
vt 0.502491 1.000000
vt 0.502491 1.000000
vt 0.494986 0.000000
vt 0.494986 1.000000
vt 0.509955 0.000000
vt 0.502491 0.000000
vt 0.509955 1.000000
vt 0.509955 1.000000
vt 0.502491 0.000000
vt 0.502491 1.000000
vt 0.517383 0.000000
vt 0.509955 0.000000
vt 0.517383 1.000000
vt 0.517383 1.000000
vt 0.509955 0.000000
vt 0.509955 1.000000
vt 0.524782 0.000000
vt 0.517383 0.000000
vt 0.524782 1.000000
vt 0.524782 1.000000
vt 0.517383 0.000000
vt 0.517383 1.000000
vt 0.532155 0.000000
vt 0.524782 0.000000
vt 0.532155 1.000000
vt 0.532155 1.000000
vt 0.524782 0.000000
vt 0.524782 1.000000
vt 0.539508 0.000000
vt 0.532155 0.000000
vt 0.539508 1.000000
vt 0.539508 1.000000
vt 0.532155 0.000000
vt 0.532155 1.000000
vt 0.546844 0.000000
vt 0.539508 0.000000
vt 0.546844 1.000000
vt 0.546844 1.000000
vt 0.539508 0.000000
vt 0.539508 1.000000
vt 0.554168 0.000000
vt 0.546844 0.000000
vt 0.554168 1.000000
vt 0.554168 1.000000
vt 0.546844 0.000000
vt 0.546844 1.000000
vt 0.561482 0.000000
vt 0.554168 0.000000
vt 0.561482 1.000000
vt 0.561482 1.000000
vt 0.554168 0.000000
vt 0.554168 1.000000
vt 0.568791 0.000000
vt 0.561482 0.000000
vt 0.568791 1.000000
vt 0.568791 1.000000
vt 0.561482 0.000000
vt 0.561482 1.000000
vt 0.576096 0.000000
vt 0.568791 0.000000
vt 0.576096 1.000000
vt 0.576096 1.000000
vt 0.568791 0.000000
vt 0.568791 1.000000
vt 0.583401 0.000000
vt 0.576096 0.000000
vt 0.583401 1.000000
vt 0.583401 1.000000
vt 0.576096 0.000000
vt 0.576096 1.000000
vt 0.590710 0.000000
vt 0.583401 0.000000
vt 0.590710 1.000000
vt 0.590710 1.000000
vt 0.583401 0.000000
vt 0.583401 1.000000
vt 0.598024 0.000000
vt 0.590710 0.000000
vt 0.598024 1.000000
vt 0.598024 1.000000
vt 0.590710 0.000000
vt 0.590710 1.000000
vt 0.605348 0.000000
vt 0.598024 0.000000
vt 0.605348 1.000000
vt 0.605348 1.000000
vt 0.598024 0.000000
vt 0.598024 1.000000
vt 0.612684 0.000000
vt 0.605348 0.000000
vt 0.612684 1.000000
vt 0.612684 1.000000
vt 0.605348 0.000000
vt 0.605348 1.000000
vt 0.620037 0.000000
vt 0.612684 0.000000
vt 0.620037 1.000000
vt 0.620037 1.000000
vt 0.612684 0.000000
vt 0.612684 1.000000
vt 0.627411 0.000000
vt 0.620037 0.000000
vt 0.627411 1.000000
vt 0.627411 1.000000
vt 0.620037 0.000000
vt 0.620037 1.000000
vt 0.634809 0.000000
vt 0.627411 0.000000
vt 0.634809 1.000000
vt 0.634809 1.000000
vt 0.627411 0.000000
vt 0.627411 1.000000
vt 0.642237 0.000000
vt 0.634809 0.000000
vt 0.642237 1.000000
vt 0.642237 1.000000
vt 0.634809 0.000000
vt 0.634809 1.000000
vt 0.649701 0.000000
vt 0.642237 0.000000
vt 0.649701 1.000000
vt 0.649701 1.000000
vt 0.642237 0.000000
vt 0.642237 1.000000
vt 0.657207 0.000000
vt 0.649701 0.000000
vt 0.657207 1.000000
vt 0.657207 1.000000
vt 0.649701 0.000000
vt 0.649701 1.000000
vt 0.664760 0.000000
vt 0.657207 0.000000
vt 0.664760 1.000000
vt 0.664760 1.000000
vt 0.657207 0.000000
vt 0.657207 1.000000
vt 0.672370 0.000000
vt 0.664760 0.000000
vt 0.672370 1.000000
vt 0.672370 1.000000
vt 0.664760 0.000000
vt 0.664760 1.000000
vt 0.680043 0.000000
vt 0.672370 0.000000
vt 0.680043 1.000000
vt 0.680043 1.000000
vt 0.672370 0.000000
vt 0.672370 1.000000
vt 0.687788 0.000000
vt 0.680043 0.000000
vt 0.687788 1.000000
vt 0.687788 1.000000
vt 0.680043 0.000000
vt 0.680043 1.000000
vt 0.695616 0.000000
vt 0.687788 0.000000
vt 0.695616 1.000000
vt 0.695616 1.000000
vt 0.687788 0.000000
vt 0.687788 1.000000
vt 1.000000 0.000000
vt 0.695616 0.000000
vt 1.000000 1.000000
vt 1.000000 1.000000
vt 0.695616 0.000000
vt 0.695616 1.000000

#Faces
f 2/1/5 1/2/1 37/3/3
f 37/4/3 1/5/1 36/6/2
f 3/7/10 2/8/6 38/9/7
f 38/10/7 2/11/4 37/12/3
f 4/13/13 3/14/8 39/15/11
f 39/16/12 3/17/9 38/18/7
f 5/19/15 4/20/13 40/21/14
f 40/22/14 4/23/13 39/24/11
f 6/25/17 5/26/15 41/27/16
f 41/28/16 5/29/15 40/30/14
f 7/31/19 6/32/17 42/33/18
f 42/34/18 6/35/17 41/36/16
f 8/37/21 7/38/19 43/39/20
f 43/40/20 7/41/19 42/42/18
f 9/43/25 8/44/22 44/45/23
f 44/46/23 8/47/22 43/48/20
f 10/49/27 9/50/25 45/51/26
f 45/52/26 9/53/24 44/54/23
f 11/55/30 10/56/27 46/57/28
f 46/58/28 10/59/27 45/60/26
f 12/61/32 11/62/30 47/63/31
f 47/64/31 11/65/30 46/66/29
f 13/67/34 12/68/32 48/69/33
f 48/70/33 12/71/32 47/72/31
f 14/73/36 13/74/34 49/75/35
f 49/76/35 13/77/34 48/78/33
f 15/79/38 14/80/36 50/81/37
f 50/82/37 14/83/36 49/84/35
f 16/85/42 15/86/38 51/87/39
f 51/88/40 15/89/38 50/90/37
f 17/91/45 16/92/42 52/93/44
f 52/94/44 16/95/42 51/96/41
f 18/97/47 17/98/45 53/99/46
f 53/100/46 17/101/45 52/102/43
f 19/103/50 18/104/47 54/105/48
f 54/106/48 18/107/47 53/108/46
f 20/109/52 19/110/50 55/111/51
f 55/112/51 19/113/50 54/114/49
f 21/115/55 20/116/53 56/117/54
f 56/118/54 20/119/53 55/120/51
f 22/121/58 21/122/55 57/123/56
f 57/124/57 21/125/55 56/126/54
f 23/127/61 22/128/59 58/129/60
f 58/130/60 22/131/59 57/132/57
f 24/133/63 23/134/61 59/135/62
f 59/136/62 23/137/61 58/138/60
f 25/139/66 24/140/63 60/141/65
f 60/142/65 24/143/63 59/144/62
f 26/145/68 25/146/66 61/147/67
f 61/148/67 25/149/66 60/150/64
f 27/151/70 26/152/68 62/153/69
f 62/154/69 26/155/68 61/156/67
f 28/157/72 27/158/70 63/159/71
f 63/160/71 27/161/70 62/162/69
f 29/163/75 28/164/72 64/165/73
f 64/166/73 28/167/72 63/168/71
f 30/169/77 29/170/74 65/171/76
f 65/172/76 29/173/74 64/174/73
f 31/175/79 30/176/77 66/177/78
f 66/178/78 30/179/77 65/180/76
f 32/181/81 31/182/79 67/183/80
f 67/184/80 31/185/79 66/186/78
f 33/187/85 32/188/82 68/189/84
f 68/190/84 32/191/82 67/192/80
f 34/193/87 33/194/85 69/195/86
f 69/196/86 33/197/85 68/198/83
f 35/199/88 34/200/87 70/201/89
f 70/202/89 34/203/87 69/204/86

#End object.
